# xmcd
#
# Track frame offsets: 
#        150
#        18640
#        34194
#        54213
#        70233
#        100206
#        116189
#        131368
#        149600
#        169816
#        189223
#        216777
#        239552
#        260975
#        282436
#
# Disc length: 4012 seconds
#
# Revision: 0
# Processed by: cddbd v1.5.2PL0 Copyright (c) Steve Scherf et al.
# Submitted via: ExactAudioCopy v1.3
#
DISCID=e90faa0f
DTITLE=Skyla Burrell - Tough Luck
DYEAR=2008
DGENRE=Electric Blues
TTITLE0=Straighten Up Baby
TTITLE1=Can't Take Losing You
TTITLE2=Trouble On The Run
TTITLE3=Long Hard Trip
TTITLE4=Heart Of Tin
TTITLE5=Looking For My Baby
TTITLE6=Straight From The Heart
TTITLE7=Head Over Heels
TTITLE8=Tough Luck
TTITLE9=I Miss You And Me
TTITLE10=Gone So Long
TTITLE11=Standing In The Rain
TTITLE12=Take Away These Blues
TTITLE13=Painkiller
TTITLE14=Whiskey And Reefer
EXTD=
EXTT0=
EXTT1=
EXTT2=
EXTT3=
EXTT4=
EXTT5=
EXTT6=
EXTT7=
EXTT8=
EXTT9=
EXTT10=
EXTT11=
EXTT12=
EXTT13=
EXTT14=
PLAYORDER=
